<?xml version="1.0" standalone="no"?>
<!DOCTYPE svg PUBLIC "-//W3C//DTD SVG 20010904//EN"
 "http://www.w3.org/TR/2001/REC-SVG-20010904/DTD/svg10.dtd">
<svg version="1.0" xmlns="http://www.w3.org/2000/svg"
 width="320.000000pt" height="386.000000pt" viewBox="0 0 320.000000 386.000000"
 preserveAspectRatio="xMidYMid meet">

<g transform="translate(0.000000,386.000000) scale(0.100000,-0.100000)"
fill="#000000" stroke="none">
<path d="M878 3083 c-30 -34 -38 -62 -38 -126 l0 -64 -48 -7 c-52 -7 -88 -33
-97 -69 -3 -12 -4 -501 -3 -1087 l3 -1065 780 0 780 0 3 1077 2 1076 -26 31
c-19 23 -37 32 -73 37 l-48 6 -6 81 c-5 73 -8 84 -32 105 -24 20 -36 22 -103
20 -74 -3 -77 -4 -99 -37 -18 -27 -23 -48 -23 -102 l0 -69 -374 0 -374 0 -4
81 c-3 74 -6 83 -31 105 -24 21 -38 24 -101 24 -57 0 -76 -4 -88 -17z m140
-55 c9 -9 12 -72 12 -220 l0 -208 -60 0 -60 0 0 208 c0 148 3 211 12 220 7 7
28 12 48 12 20 0 41 -5 48 -12z m1010 0 c9 -9 12 -72 12 -220 l0 -208 -60 0
-60 0 0 208 c0 148 3 211 12 220 7 7 28 12 48 12 20 0 41 -5 48 -12z m-368
-398 l0 -30 -185 0 -185 0 0 30 0 30 185 0 185 0 0 -30z m-597 -230 c4 -17 14
-20 62 -20 48 0 58 3 62 20 5 17 14 20 63 20 49 0 58 -3 63 -20 5 -20 14 -20
441 -20 l436 0 0 -830 0 -830 -715 0 -715 0 0 830 0 830 84 0 c76 0 85 2 91
20 5 17 15 20 65 20 49 0 58 -3 63 -20z"/>
<path d="M851 2216 c-15 -18 -5 -43 22 -50 12 -3 286 -6 608 -6 620 0 626 0
617 46 -3 18 -19 19 -619 22 -514 2 -618 0 -628 -12z"/>
<path d="M856 2004 c-9 -8 -16 -19 -16 -23 0 -30 29 -31 637 -31 559 0 614 1
620 16 3 9 2 24 -4 33 -9 14 -71 16 -616 19 -541 2 -607 0 -621 -14z"/>
<path d="M849 1784 c-9 -11 -10 -20 -2 -32 9 -16 62 -17 628 -17 566 0 619 1
628 17 8 12 7 21 -2 32 -12 14 -79 16 -626 16 -547 0 -614 -2 -626 -16z"/>
<path d="M846 1565 c-8 -22 3 -42 27 -49 12 -3 286 -6 608 -6 620 0 626 0 617
46 -3 18 -19 19 -625 22 -546 2 -622 0 -627 -13z"/>
<path d="M849 1354 c-9 -11 -10 -20 -2 -32 9 -16 62 -17 629 -17 l619 0 0 30
0 30 -616 3 c-553 2 -618 1 -630 -14z"/>
<path d="M851 1136 c-15 -18 -5 -43 22 -50 29 -8 1176 -7 1205 0 18 5 22 13
20 33 l-3 26 -616 3 c-514 2 -618 0 -628 -12z"/>
<path d="M856 924 c-9 -8 -16 -19 -16 -23 0 -29 30 -31 486 -31 412 0 463 2
468 16 8 21 8 20 -10 38 -14 14 -70 16 -464 16 -394 0 -450 -2 -464 -16z"/>
<path d="M2444 2170 c-55 -22 -54 -8 -54 -613 l0 -559 57 -104 c56 -103 76
-122 101 -91 22 27 112 198 112 212 0 9 -12 21 -27 28 -29 13 -23 19 -77 -77
l-33 -58 -31 56 -32 56 0 340 0 340 65 0 65 0 0 -260 c0 -279 1 -286 49 -260
21 11 21 15 21 471 0 507 1 496 -62 518 -36 13 -124 13 -154 1z m144 -133 l3
-68 -68 3 -68 3 -3 47 c-5 75 8 90 76 86 l57 -3 3 -68z m2 -197 l0 -60 -70 0
-70 0 0 60 0 60 70 0 70 0 0 -60z"/>
</g>
</svg>
